<svg width="95.202mm" height="95.202mm" version="1.1" viewBox="0 0 95.202 95.202" xml:space="preserve" xmlns="http://www.w3.org/2000/svg"><g transform="translate(-53.599 -40.585)"><circle cx="101.2" cy="88.186" r="46.543" fill="#191919" stroke="#878787" stroke-linecap="round" stroke-width="2.1167"/><path transform="scale(.26458)" d="m292.28 337.32c.36117-.39316 2.1914-2.2444 2.2189-2.2444.0122 0 .153.0866.3128.19236.15979.1058.35065.22721.42411.26982.0735.0426.13358.0872.13358.099 0 .0217-3.2961 1.9697-3.3328 1.9697-.0109 0 .0987-.12894.24346-.28652zm7.1298 13.117c-.82337-.13817-2.1033-.46428-2.8444-.7247-1.3788-.48454-4.4946-2.2452-4.4868-2.5354.002-.0887.64236-.51861 1.4222-.95532.77983-.43672 5.3252-3.0862 10.101-5.8878 10.733-6.2962 11.902-6.966 11.996-6.869.0412.0426-1.1985 2.1658-2.755 4.7183-1.5564 2.5524-3.7868 6.3458-4.9563 8.4296-1.8471 3.291-2.2436 3.8122-3.0185 3.9672-1.1706.23411-3.5891.17083-5.4581-.14281zm129.53-84.795c-.53963-2.3416-1.9817-8.3548-3.2046-13.363-1.2229-5.0078-2.166-9.1626-2.0958-9.2328.19259-.19259 8.8584 8.0577 8.8569 8.4322-.003.71094-2.3536 18.199-2.4607 18.306-.0631.0631-.55624-1.8011-1.0959-4.1428zm6.7312 28.153c-.19155-.95567 6.2091-51.846 6.6711-53.041.17695-.45766 1.5353 1.2148 6.9147 8.5135 3.682 4.9957 6.6945 9.2339 6.6945 9.4182 0 .61449-19.515 36.082-19.853 36.082-.12766 0-.31988-.43789-.42715-.97308zm6.0014 16.707-2.1101-4.328 10.238-18.545c5.6308-10.2 12.937-23.539 16.235-29.642s6.0687-11.184 6.156-11.291c.492-.60439 6.6941 13.499 8.5293 19.396l1.0403 3.3425-4.0448 4.8178c-2.2246 2.6498-7.6338 8.817-12.02 13.705-9.7248 10.836-14.336 16.366-18.498 22.182-1.7468 2.4412-3.2298 4.4953-3.2957 4.5647-.0658.0694-1.0692-1.8214-2.2298-4.2018zm-93.804 128.04c-11.245-1.1406-29.446-5.3042-36.148-8.2688-3.7201-1.6456-8.2345-6.2721-10.459-10.719-1.066-2.1309-1.9382-4.3062-1.9382-4.834 0-.52779 1.0174-1.6646 2.2608-2.5264 2.8145-1.9505 3.8421-3.3854 3.8421-5.3653 0-3.0161-3.7112-4.7823-6.6942-3.1859-1.0111.54112-1.0732.36051-1.0732-3.1234 0-2.0337.64219-6.561 1.4271-10.061 4.0441-18.031 11.807-33.955 31.251-64.106 8.4319-13.075 13.901-24.924 15.916-34.481 1.3721-6.5094 1.115-13.914-.8106-23.344-2.569-12.582-3.4613-20.57-3.4702-31.069-.009-10.604.82593-16.537 3.4144-24.263 2.1791-6.5042 3.8698-9.7066 6.6219-12.542 5.5421-5.7108 12.927-8.5204 22.492-8.5568 10.765-.041 16.946 2.2584 23.346 8.6847 7.7615 7.7938 12.295 18.198 16.01 36.738 3.34 16.671 15.541 66.093 17.573 71.184 5.4483 13.647 16.611 28.196 32.987 42.993 5.3337 4.8195 27.864 23.481 30.74 25.462 1.9157 1.3193 3.7162 1.1779 5.3112-.41713 2.1298-2.1298 1.8144-4.1826-1.0477-6.8208l-2.4095-2.221 10.87-.3047c5.9787-.16759 11.964-.58175 13.301-.92036 1.3371-.33862 2.5035-.54335 2.5919-.45497.0884.0884-.31024 1.498-.88583 3.1324-4.2466 12.059-13.177 20.632-24.665 23.681-5.2148 1.3836-16.195 1.6632-22.448.57154-21.257-3.7108-40.962-17.862-52.892-37.986-3.0028-5.0652-7.0386-13.925-9.6324-21.145-2.5743-7.1666-4.7418-8.7518-8.2226-6.0138-1.3268 1.0436-1.4895 1.4923-1.2575 3.4676.75598 6.4374 10.35 26.95 16.5 35.28 4.9161 6.6581 12.744 14.61 18.974 19.274 5.5568 4.1599 5.9944 4.9879 5.9944 11.341 0 9.8997-5.6918 19.001-16.68 26.672l-3.6423 2.5426-6.0669-6.1058c-3.3368-3.3582-6.6459-6.3342-7.3537-6.6134-2.8382-1.1195-5.6483.95273-5.6483 4.1653 0 1.3757.96877 2.5664 5.8255 7.1598 3.204 3.0303 5.8255 5.6929 5.8255 5.9168 0 .50868-7.0177 3.4688-11.096 4.6804-5.9561 1.7694-16.846 2.6363-35.508 2.8267-9.9172.1012-20.278-.0439-23.025-.32251zm19.833-183.39c6.979-.28711 8.386-.49718 9.5705-1.4289 1.7752-1.3964 1.8581-4.0468.18229-5.8306-1.0976-1.1683-1.6839-1.2841-6.5016-1.2841h-5.2953l3.1728-3.2062c2.668-2.6961 3.1728-3.521 3.1728-5.1847 0-3.5637-3.7744-5.1834-6.8194-2.9262-.78148.57927-5.8708 5.4973-11.31 10.929l-9.8888 9.8758 7.7673-.30376c4.272-.16707 11.449-.45523 15.949-.64036zm-15.555-16.338c1.6393-.74693 9.8701-12.542 9.8701-14.144 0-1.9321-2.0672-4.1371-3.8786-4.1371-2.6687 0-3.2038.48048-7.4966 6.7318-4.7516 6.9192-5.2553 8.97-2.6976 10.982 1.6534 1.3005 2.3788 1.3985 4.2027.56746zm42.049-9.4041c1.5327-1.5327 1.4637-4.4811-.1387-5.9238-1.4772-1.33-15.815-6.282-18.189-6.282-3.3073 0-5.0655 3.9973-2.8941 6.58 1.1351 1.3501 15.592 6.638 18.309 6.6965 1.1043.0238 2.2332-.39117 2.9127-1.0708z" fill="#515151"/><g fill="none" stroke="#c48890" stroke-linecap="round" stroke-width="1.0583"><path d="m127.92 95.887c4.0079.33649 8.1444.6472 12.042-.58314-.26948 4.9043-4.0697 9.3587-9.0209 9.948-8.9485 1.3596-17.625-4.856-21.171-12.822-.73877-1.5437-1.3861-3.1343-1.8972-4.7682"/><path d="m86.799 84.906c-3.5904 2.2107-7.2839 4.3048-10.88 6.4597-2.6909-.05159 1.9944-4.1608 1.9944-4.1608s1.7156 2.4491 5.0727.0046"/><path d="m75.222 91.216c1.4575 2.2526 3.7245 3.005 6.2824 2.5261"/><path d="m118.58 102.77c1.4269 4.0669-1.0623 8.2307-4.4856 10.36-2.6287 2.0462-5.6412 3.5922-9.0204 3.8012-7.5019.79778-15.362.74028-22.532-1.8466-4.5885-1.6891-5.6554-7.3471-4.607-11.614 1.3661-6.7263 5.1246-12.591 8.8553-18.226 2.4836-4.0386 5.0548-8.8072 3.5225-13.669-1.1547-5.9536-1.946-12.688 1.146-18.212 2.5515-3.9733 8.3341-4.5135 12.38-2.7787 5.0155 2.776 6.2388 8.9638 7.1705 14.139 1.3631 5.2487 2.4226 10.595 3.8877 15.818 3.0202 8.036 10.444 13.1 16.768 18.377"/><path d="m108.47 110.61c2.5685 2.3784 5.2841 4.9397 6.1853 8.4562"/><path d="m79.7 107.7c-2.9271 2.2628-6.0899 4.4961-7.6957 7.9605"/><path d="m115.04 80.966c3.3859-6.0896 6.7447-12.194 10.017-18.345 1.2626 2.941 2.9489 5.7911 3.6092 8.9329-3.5408 4.6458-8.1236 8.5334-11.047 13.632"/><path d="m114.13 77.336c.72453-5.5669 1.449-11.134 2.1736-16.701 1.873 2.5432 3.746 5.0865 5.619 7.6297"/><path d="m110.78 61.512c1.6084 1.5134 3.2168 3.0268 4.8253 4.5402"/><path d="m92.728 62.178c.63959-.92371 1.2967-1.8358 1.922-2.7692"/><path d="m99.521 58.525c1.3386.46442 2.6772.92883 4.0158 1.3932"/><path d="m97.373 63.06c-1.1747 1.1508-2.3494 2.3016-3.5241 3.4524 1.7484-.05807 3.4968-.11613 5.2452-.1742"/></g></g></svg>
