<?xml version="1.0" encoding="UTF-8" standalone="no"?>
<!-- Created with Inkscape (http://www.inkscape.org/) -->

<svg
   width="95.201851mm"
   height="95.201851mm"
   viewBox="0 0 95.201851 95.201851"
   version="1.1"
   id="svg5"
   xml:space="preserve"
   xmlns="http://www.w3.org/2000/svg"
   xmlns:svg="http://www.w3.org/2000/svg"><defs
     id="defs2" /><g
     id="layer1"
     transform="translate(-53.59859,-40.58504)"
     style="display:none"><circle
       style="fill:#191919;fill-opacity:1;stroke:#878787;stroke-width:2.11667;stroke-linecap:round;stroke-dasharray:none;stroke-dashoffset:0;stroke-opacity:1"
       id="path7321"
       cx="101.19952"
       cy="88.185966"
       r="46.542591" /></g><g
     id="layer3"
     transform="translate(-53.59859,-40.58504)"><path
       id="path10972"
       style="display:inline;fill:#515151;fill-opacity:1;stroke:none;stroke-width:0.224967;stroke-linecap:round;stroke-dasharray:none;stroke-dashoffset:0;stroke-opacity:1"
       d="m 292.27836,337.31877 c 0.36117,-0.39316 2.19136,-2.24436 2.21887,-2.24436 0.0122,0 0.153,0.0866 0.3128,0.19236 0.15979,0.1058 0.35065,0.22721 0.42411,0.26982 0.0735,0.0426 0.13358,0.0872 0.13358,0.099 0,0.0217 -3.29607,1.9697 -3.33282,1.9697 -0.0109,0 0.0987,-0.12894 0.24346,-0.28652 z m 7.12977,13.11663 c -0.82337,-0.13817 -2.10334,-0.46428 -2.84437,-0.7247 -1.37882,-0.48454 -4.49457,-2.24517 -4.48681,-2.53538 0.002,-0.0887 0.64236,-0.51861 1.42219,-0.95532 0.77983,-0.43672 5.32515,-3.08622 10.10071,-5.88778 10.7326,-6.29623 11.90231,-6.96601 11.99618,-6.86899 0.0412,0.0426 -1.19854,2.1658 -2.75499,4.71826 -1.55644,2.55245 -3.78678,6.34576 -4.9563,8.42956 -1.84706,3.29101 -2.2436,3.81217 -3.01852,3.96716 -1.17057,0.23411 -3.58909,0.17083 -5.45809,-0.14281 z m 129.52908,-84.79462 c -0.53963,-2.34161 -1.9817,-8.35481 -3.20459,-13.36266 -1.2229,-5.00784 -2.166,-9.16263 -2.09578,-9.23285 0.19259,-0.19259 8.85841,8.0577 8.8569,8.4322 -0.003,0.71094 -2.35358,18.19898 -2.46066,18.30606 -0.0631,0.0631 -0.55624,-1.80114 -1.09587,-4.14275 z m 6.73115,28.15345 c -0.19155,-0.95567 6.20906,-51.84574 6.67111,-53.04081 0.17695,-0.45766 1.53533,1.21481 6.91471,8.51353 3.68198,4.9957 6.69451,9.23386 6.69451,9.41815 0,0.61449 -19.51507,36.08221 -19.85318,36.08221 -0.12766,0 -0.31988,-0.43789 -0.42715,-0.97308 z m 6.00145,16.70701 -2.11011,-4.32795 10.23787,-18.54541 c 5.63083,-10.19998 12.93669,-23.5387 16.23524,-29.6416 3.29855,-6.1029 6.06874,-11.18386 6.15597,-11.29103 0.492,-0.60439 6.69411,13.49936 8.52929,19.3958 l 1.0403,3.34247 -4.04479,4.81776 c -2.22464,2.64976 -7.63381,8.81695 -12.02039,13.70485 -9.72476,10.83618 -14.3359,16.36572 -18.49793,22.18222 -1.74679,2.44116 -3.22984,4.49526 -3.29566,4.56466 -0.0658,0.0694 -1.06922,-1.82139 -2.22979,-4.20177 z m -93.80444,128.04135 c -11.24471,-1.14062 -29.44628,-5.30418 -36.14838,-8.26884 -3.72008,-1.64556 -8.23449,-6.27212 -10.45917,-10.71899 -1.06604,-2.13088 -1.93825,-4.30617 -1.93825,-4.83397 0,-0.52779 1.01736,-1.66464 2.2608,-2.52635 2.81453,-1.95047 3.8421,-3.38543 3.8421,-5.36533 0,-3.01609 -3.71121,-4.78233 -6.69418,-3.18589 -1.01109,0.54112 -1.07315,0.36051 -1.07315,-3.12335 0,-2.03372 0.64219,-6.561 1.42709,-10.06061 4.04408,-18.03125 11.80653,-33.95468 31.2508,-64.10608 8.43186,-13.07492 13.90117,-24.9241 15.91569,-34.48115 1.37211,-6.50939 1.115,-13.91387 -0.8106,-23.34437 -2.56904,-12.58169 -3.46132,-20.57045 -3.47017,-31.06932 -0.009,-10.6045 0.82593,-16.53721 3.41441,-24.26331 2.17912,-6.50424 3.86982,-9.70655 6.62193,-12.54241 5.54213,-5.71078 12.92738,-8.52043 22.49193,-8.55684 10.76529,-0.041 16.94642,2.25839 23.34606,8.68471 7.76151,7.79385 12.29529,18.19756 16.00978,36.73789 3.34002,16.67116 15.54083,66.0931 17.57324,71.18408 5.4483,13.64745 16.6108,28.19616 32.98673,42.99343 5.33367,4.81951 27.86389,23.48129 30.73994,25.46191 1.91573,1.31928 3.71615,1.17788 5.31115,-0.41713 2.12977,-2.12976 1.81445,-4.18255 -1.04768,-6.82077 l -2.4095,-2.22099 10.87034,-0.3047 c 5.97868,-0.16759 11.96435,-0.58175 13.30149,-0.92036 1.33714,-0.33862 2.50348,-0.54335 2.59186,-0.45497 0.0884,0.0884 -0.31024,1.49799 -0.88583,3.13245 -4.24657,12.05856 -13.17697,20.6325 -24.66513,23.68063 -5.21477,1.38362 -16.19464,1.66318 -22.44808,0.57154 -21.25744,-3.71079 -40.96241,-17.86231 -52.89219,-37.98559 -3.00279,-5.06515 -7.03861,-13.92475 -9.63236,-21.14536 -2.57434,-7.16659 -4.74178,-8.75179 -8.22261,-6.01378 -1.32677,1.04364 -1.48948,1.4923 -1.25752,3.46756 0.75598,6.43742 10.3495,26.94991 16.50017,35.27996 4.91614,6.65809 12.74448,14.61005 18.97388,19.2735 5.5568,4.15993 5.99443,4.98792 5.99443,11.3413 0,9.89969 -5.69177,19.00074 -16.6803,26.67155 l -3.64229,2.54257 -6.06688,-6.10579 c -3.33677,-3.3582 -6.64594,-6.33422 -7.35369,-6.61338 -2.83824,-1.11954 -5.64829,0.95273 -5.64829,4.16531 0,1.37574 0.96877,2.5664 5.82549,7.15983 3.20403,3.03033 5.8255,5.69289 5.8255,5.91682 0,0.50868 -7.0177,3.46875 -11.09618,4.68037 -5.95607,1.7694 -16.84569,2.63631 -35.50779,2.82673 -9.91722,0.1012 -20.27828,-0.0439 -23.02459,-0.32251 z m 19.83284,-183.38636 c 6.97895,-0.28711 8.38599,-0.49718 9.57046,-1.42888 1.77519,-1.39637 1.85806,-4.04681 0.18229,-5.83058 -1.09755,-1.16828 -1.68387,-1.28408 -6.50164,-1.28408 h -5.29531 l 3.17278,-3.20624 c 2.66795,-2.69608 3.17279,-3.52104 3.17279,-5.1847 0,-3.56371 -3.77443,-5.18335 -6.81941,-2.92625 -0.78148,0.57927 -5.87082,5.49734 -11.30966,10.92904 l -9.8888,9.87581 7.76733,-0.30376 c 4.27203,-0.16707 11.44915,-0.45523 15.94917,-0.64036 z m -15.55532,-16.33848 c 1.63933,-0.74693 9.87012,-12.54177 9.87012,-14.14403 0,-1.93211 -2.06717,-4.13706 -3.87855,-4.13706 -2.66868,0 -3.20375,0.48048 -7.49663,6.73175 -4.75155,6.91918 -5.25533,8.97 -2.69763,10.98188 1.65336,1.30053 2.37879,1.39849 4.20269,0.56746 z m 42.04905,-9.40414 c 1.53273,-1.53273 1.4637,-4.48107 -0.1387,-5.9238 -1.47718,-1.32999 -15.815,-6.282 -18.18861,-6.282 -3.30732,0 -5.06548,3.9973 -2.89414,6.58002 1.13509,1.35014 15.59243,6.63802 18.30871,6.69654 1.10434,0.0238 2.23315,-0.39117 2.91274,-1.07076 z"
       transform="scale(0.26458333)" /></g><g
     id="layer2"
     transform="translate(-53.59859,-40.58504)"><g
       id="g7351"
       style="display:inline"><path
         style="fill:none;stroke:#c48890;stroke-width:1.05833;stroke-linecap:round;stroke-dasharray:none;stroke-opacity:1"
         d="m 127.91832,95.886869 c 4.00788,0.336488 8.14438,0.647204 12.04204,-0.583137 -0.26948,4.904308 -4.06972,9.358718 -9.02088,9.947968 -8.94847,1.35958 -17.62508,-4.85602 -21.17111,-12.821806 -0.73877,-1.543734 -1.38608,-3.134259 -1.89721,-4.76817"
         id="path7327" /><path
         style="fill:none;stroke:#c48890;stroke-width:1.05833;stroke-linecap:round;stroke-dasharray:none;stroke-opacity:1"
         d="m 86.798594,84.905508 c -3.590358,2.210707 -7.283922,4.304846 -10.880396,6.459684 -2.690949,-0.05159 1.994382,-4.160759 1.994382,-4.160759 0,0 1.715615,2.4491 5.072663,0.0046"
         id="path7329" /><path
         style="fill:none;stroke:#c48890;stroke-width:1.05833;stroke-linecap:round;stroke-dasharray:none;stroke-opacity:1"
         d="m 75.221705,91.216269 c 1.457521,2.252588 3.724459,3.005001 6.28245,2.526123"
         id="path7331" /><path
         style="fill:none;stroke:#c48890;stroke-width:1.05833;stroke-linecap:round;stroke-dasharray:none;stroke-opacity:1"
         d="m 118.58301,102.77016 c 1.42688,4.06694 -1.06233,8.23071 -4.48555,10.35975 -2.62867,2.04616 -5.64124,3.59215 -9.02039,3.80119 -7.501922,0.79778 -15.361838,0.74028 -22.532108,-1.84655 -4.588542,-1.68914 -5.655403,-7.34714 -4.60705,-11.61443 1.366078,-6.726312 5.12455,-12.591086 8.855294,-18.226083 2.483626,-4.038558 5.054764,-8.807242 3.522534,-13.669382 -1.154672,-5.953556 -1.946049,-12.688464 1.145967,-18.212183 2.551494,-3.973263 8.334065,-4.513513 12.379613,-2.778695 5.01553,2.775988 6.23878,8.963796 7.17047,14.13938 1.36306,5.248697 2.42257,10.595149 3.88769,15.817585 3.02017,8.035962 10.44393,13.099836 16.76834,18.377225"
         id="path7333" /><path
         style="fill:none;stroke:#c48890;stroke-width:1.05833;stroke-linecap:round;stroke-dasharray:none;stroke-opacity:1"
         d="m 108.47356,110.60574 c 2.56846,2.37843 5.28409,4.93973 6.18531,8.4562"
         id="path7335" /><path
         style="fill:none;stroke:#c48890;stroke-width:1.05833;stroke-linecap:round;stroke-dasharray:none;stroke-opacity:1"
         d="m 79.700426,107.69618 c -2.927111,2.26284 -6.089915,4.49614 -7.695725,7.96051"
         id="path7337" /><path
         style="fill:none;stroke:#c48890;stroke-width:1.05833;stroke-linecap:round;stroke-dasharray:none;stroke-opacity:1"
         d="m 115.04302,80.965823 c 3.38592,-6.089612 6.74471,-12.194019 10.01736,-18.345405 1.26258,2.940952 2.94892,5.791074 3.60924,8.932884 -3.54081,4.645767 -8.12362,8.533421 -11.04666,13.631575"
         id="path7339" /><path
         style="fill:none;stroke:#c48890;stroke-width:1.05833;stroke-linecap:round;stroke-dasharray:none;stroke-opacity:1"
         d="m 114.13437,77.336122 c 0.72453,-5.56693 1.44905,-11.13386 2.17358,-16.70079 1.87299,2.543232 3.74598,5.086464 5.61897,7.629696"
         id="path7341" /><path
         style="fill:none;stroke:#c48890;stroke-width:1.05833;stroke-linecap:round;stroke-dasharray:none;stroke-opacity:1"
         d="m 110.77971,61.511723 c 1.60842,1.51341 3.21685,3.026821 4.82527,4.540231"
         id="path7343" /><path
         style="fill:none;stroke:#c48890;stroke-width:1.05833;stroke-linecap:round;stroke-dasharray:none;stroke-opacity:1"
         d="m 92.728266,62.177686 c 0.639589,-0.923706 1.296653,-1.835826 1.922042,-2.769194"
         id="path7345" /><path
         style="fill:none;stroke:#c48890;stroke-width:1.05833;stroke-linecap:round;stroke-dasharray:none;stroke-opacity:1"
         d="m 99.521129,58.5251 c 1.338611,0.464417 2.677211,0.928833 4.015821,1.39325"
         id="path7347" /><path
         style="fill:none;stroke:#c48890;stroke-width:1.05833;stroke-linecap:round;stroke-dasharray:none;stroke-opacity:1"
         d="m 97.372973,63.060261 c -1.174701,1.150811 -2.349401,2.301621 -3.524102,3.452432 1.748391,-0.05807 3.496781,-0.116133 5.245172,-0.174199"
         id="path7349" /></g></g></svg>
