<svg xmlns="http://www.w3.org/2000/svg" height="48" viewBox="0 96 960 960" width="48"><path d="M485 952q-157.758 0-267.379-110Q108 732 110 575h74q-2 127 85.498 215.5T484 879q127.164 0 216.082-90.127Q789 698.746 789 571.5q0-125.5-89.582-212T485 273q-71.651 0-134.325 33Q288 339 245 394h110v73H121V234h73v107q52-67 128.635-104Q399.271 200 485 200q77.921 0 146.471 29.6 68.551 29.6 119.323 80.025 50.773 50.424 80.989 118.602Q862 496.406 862 574.203t-30.217 146.772q-30.216 68.976-80.989 120.4Q700.022 892.8 631.471 922.4 562.921 952 485 952Zm116-203L439 590.435V365h73v194l141 138-52 52Z"/></svg>